{"title":"Jatt &amp; Juliet 2012 Non Hindi (Punjabi) 720p Dvdrip x264 ...H","uid":7626940,"size":2511379657,"categoryP":"video","categoryS":"hd___movies","magnet":"?xt=urn:btih:5a2a9749b6ed93f9629267bfbfcda1f210f5982f&amp;dn=Jatt+%26amp%3B+Juliet+2012+Non+Hindi+%28Punjabi%29+720p+Dvdrip+x264+...H&amp;tr=udp%3A%2F%2Ftracker.openbittorrent.com%3A80&amp;tr=udp%3A%2F%2Fopen.demonii.com%3A1337&amp;tr=udp%3A%2F%2Ftracker.coppersurfer.tk%3A6969&amp;tr=udp%3A%2F%2Fexodus.desync.com%3A6969","seeders":1,"leechers":1,"uploader":"honey8ee","files":-1,"time":1347450305,"description":" &lt;a href=&quot;http://www.imdb.com/title/tt2196254/&quot; rel=&quot;nofollow&quot; target=&quot;_NEW&quot;&gt;http://www.imdb.com/title/tt2196254/&lt;/a&gt;\n\n\nFormat                                   : Matroska\nFormat version                           : Version 2\nFile size                                : 2.33 GiB\nDuration                                 : 2h 16mn\nOverall bit rate                         : 2 449 Kbps\n\nVideo\nID                                       : 1\nFormat                                   : AVC\nFormat/Info                              : Advanced Video Codec\nFormat profile                           : &lt;a class=&quot;__cf_email__&quot; href=&quot;/cdn-cgi/l/email-protection&quot; data-cfemail=&quot;80c8e9e7e8c0ccb4aeb1&quot;&gt;[email&amp;#160;protected]&lt;/a&gt;&lt;script cf-hash='f9e31' type=&quot;text/javascript&quot;&gt;\n/* &lt;![CDATA[ */!function(){try{var t=&quot;currentScript&quot;in document?document.currentScript:function(){for(var t=document.getElementsByTagName(&quot;script&quot;),e=t.length;e--;)if(t[e].getAttribute(&quot;cf-hash&quot;))return t[e]}();if(t&amp;&amp;t.previousSibling){var e,r,n,i,c=t.previousSibling,a=c.getAttribute(&quot;data-cfemail&quot;);if(a){for(e=&quot;&quot;,r=parseInt(a.substr(0,2),16),n=2;a.length-n;n+=2)i=parseInt(a.substr(n,2),16)^r,e+=String.fromCharCode(i);e=document.createTextNode(e),c.parentNode.replaceChild(e,c)}}}catch(u){}}();/* ]]&gt; */&lt;/script&gt;\nFormat settings, CABAC                   : Yes\nFormat settings, ReFrames                : 4 frames\nMuxing mode                              : Header stripping\nCodec ID                                 : V_MPEG4/ISO/AVC\nDuration                                 : 2h 16mn\nBit rate                                 : 2 000 Kbps\nWidth                                    : 1 280 pixels\nHeight                                   : 544 pixels\nDisplay aspect ratio                     : 2.35:1\nFrame rate                               : 23.976 fps\nStream size                              : 1.86 GiB (80%)\n\nAudio\nID                                       : 2\nFormat                                   : AC-3\nBit rate                                 : 448 Kbps\nChannel(s)                               : 6 channels\nChannel positions                        : Front: L C R, Side: L R, LFE\nSampling rate                            : 48.0 KHz\nBit depth                                : 16 bits\nCompression mode                         : Lossy\nStream size                              : 437 MiB (18%)\nLanguage                                 : Punjabi\n &lt;a href=&quot;\nhttp://www.shotpix.com/images/03436961950441045416.png&quot; rel=&quot;nofollow&quot; target=&quot;_NEW&quot;&gt;\nhttp://www.shotpix.com/images/03436961950441045416.png&lt;/a&gt;\n &lt;a href=&quot;\nhttp://www.shotpix.com/images/97329017611234193710.png&quot; rel=&quot;nofollow&quot; target=&quot;_NEW&quot;&gt;\nhttp://www.shotpix.com/images/97329017611234193710.png&lt;/a&gt;\n &lt;a href=&quot;\nhttp://www.shotpix.com/images/49239537528491572161.png&quot; rel=&quot;nofollow&quot; target=&quot;_NEW&quot;&gt;\nhttp://www.shotpix.com/images/49239537528491572161.png&lt;/a&gt;\n &lt;a href=&quot;\nhttp://www.shotpix.com/images/76339254780738121951.png&quot; rel=&quot;nofollow&quot; target=&quot;_NEW&quot;&gt;\nhttp://www.shotpix.com/images/76339254780738121951.png&lt;/a&gt;\n &lt;a href=&quot;\nhttp://www.shotpix.com/images/06193452067068292825.png&quot; rel=&quot;nofollow&quot; target=&quot;_NEW&quot;&gt;\nhttp://www.shotpix.com/images/06193452067068292825.png&lt;/a&gt;\n &lt;a href=&quot;\nhttp://www.shotpix.com/images/37283010645428894863.png&quot; rel=&quot;nofollow&quot; target=&quot;_NEW&quot;&gt;\nhttp://www.shotpix.com/images/37283010645428894863.png&lt;/a&gt;\n &lt;a href=&quot;\nhttp://www.shotpix.com/images/13198970070613266113.png&quot; rel=&quot;nofollow&quot; target=&quot;_NEW&quot;&gt;\nhttp://www.shotpix.com/images/13198970070613266113.png&lt;/a&gt;\n &lt;a href=&quot;\nhttp://www.shotpix.com/images/29751053670730839751.png&quot; rel=&quot;nofollow&quot; target=&quot;_NEW&quot;&gt;\nhttp://www.shotpix.com/images/29751053670730839751.png&lt;/a&gt;\n &lt;a href=&quot;\nhttp://www.shotpix.com/images/12938266150475943331.png&quot; rel=&quot;nofollow&quot; target=&quot;_NEW&quot;&gt;\nhttp://www.shotpix.com/images/12938266150475943331.png&lt;/a&gt;","torrent":{"xt":"urn:btih:5a2a9749b6ed93f9629267bfbfcda1f210f5982f","amp;dn":"Jatt+%26amp%3B+Juliet+2012+Non+Hindi+%28Punjabi%29+720p+Dvdrip+x264+...H","amp;tr":["udp%3A%2F%2Ftracker.openbittorrent.com%3A80","udp%3A%2F%2Fopen.demonii.com%3A1337","udp%3A%2F%2Ftracker.coppersurfer.tk%3A6969","udp%3A%2F%2Fexodus.desync.com%3A6969"],"infoHash":"5a2a9749b6ed93f9629267bfbfcda1f210f5982f","infoHashBuffer":{"type":"Buffer","data":[90,42,151,73,182,237,147,249,98,146,103,191,191,205,161,242,16,245,152,47]},"announce":[],"urlList":[]}}